<svg version="1.1" class='icon' focusable="false" xmlns="http://www.w3.org/2000/svg" xmlns:xlink="http://www.w3.org/1999/xlink"
	 x="0px" y="0px" viewBox="0 0 250 250" enable-background="new 0 0 250 250" xml:space="preserve">
<path fill="none" stroke="#FFFFFF" stroke-width="6" d="M237.988,154.15l-20.801-12.012c2.1-11.328,2.1-22.949,0-34.277
	l20.801-12.012c2.393-1.367,3.467-4.199,2.686-6.836c-5.42-17.383-14.648-33.105-26.709-46.191c-1.855-2.002-4.883-2.49-7.227-1.123
	l-20.801,12.012c-8.74-7.52-18.799-13.33-29.688-17.139V12.598c0-2.734-1.904-5.127-4.59-5.713c-17.92-4.004-36.279-3.809-53.32,0
	c-2.686,0.586-4.59,2.979-4.59,5.713v24.023c-10.84,3.857-20.898,9.668-29.688,17.139L43.311,41.748
	c-2.393-1.367-5.371-0.928-7.227,1.123C24.023,55.908,14.795,71.631,9.375,89.062c-0.83,2.637,0.293,5.469,2.686,6.836
	l20.801,12.012c-2.1,11.328-2.1,22.949,0,34.277l-20.801,12.012c-2.393,1.367-3.467,4.199-2.686,6.836
	c5.42,17.383,14.648,33.105,26.709,46.191c1.855,2.002,4.883,2.49,7.227,1.123l20.801-12.012c8.74,7.52,18.799,13.33,29.688,17.139
	V237.5c0,2.734,1.904,5.127,4.59,5.713c17.92,4.004,36.279,3.809,53.32,0c2.686-0.586,4.59-2.979,4.59-5.713v-24.023
	c10.84-3.857,20.898-9.668,29.688-17.139l20.801,12.012c2.393,1.367,5.371,0.928,7.227-1.123
	c12.061-13.037,21.289-28.76,26.709-46.191C241.455,158.35,240.381,155.518,237.988,154.15z M125,164.062
	c-21.533,0-39.062-17.529-39.062-39.062S103.467,85.938,125,85.938s39.062,17.529,39.062,39.062S146.533,164.062,125,164.062z"/>
</svg>