<svg version="1.1" id="Layer_1" xmlns="http://www.w3.org/2000/svg" xmlns:xlink="http://www.w3.org/1999/xlink" x="0px" y="0px" class="holaBg"  viewBox="0 0 250 99" enable-background="new 0 0 250 99" xml:space="preserve">
<g>
	<path fill="#FFF" d="M106.428,75.814c0.521,0.832,0.78,1.977,0.78,3.433c0,2.704-0.66,4.854-1.976,6.447
		c-6.864,8.391-14.18,12.584-21.944,12.584c-6.726,0-12.1-2.6-16.12-7.8c-4.022-5.2-6.032-12.652-6.032-22.359
		c0-2.356,0.104-4.714,0.312-7.072c-4.576,0.832-9.568,1.456-14.976,1.872c-3.606,0.278-6.068,0.452-7.384,0.52
		c-1.388,7.072-3.328,15.74-5.824,26c-1.456,6.032-4.23,9.048-8.32,9.048c-4.438,0-6.656-2.01-6.656-6.031
		c0-0.9,0.172-2.148,0.52-3.744c2.356-9.498,4.228-17.541,5.616-24.128l-4.992,0.208c-2.288,0-3.952-0.398-4.992-1.196
		c-1.04-0.796-1.56-2.096-1.56-3.9c0-2.288,0.658-3.968,1.976-5.044c1.316-1.074,3.5-1.68,6.552-1.82l5.512-0.208
		c1.802-9.776,2.704-17.228,2.704-22.36c0-3.258-0.486-5.476-1.456-6.656c-0.972-1.178-2.254-1.768-3.848-1.768
		c-4.854,0-10.332,4.056-16.432,12.168c-0.902,1.18-1.908,1.768-3.016,1.768c-0.972,0-1.804-0.45-2.496-1.352
		c-0.692-0.9-1.04-2.044-1.04-3.432c0-2.148,0.868-4.436,2.6-6.864c3.05-4.229,6.898-7.712,11.544-10.452
		c4.644-2.738,9.36-4.108,14.144-4.108c4.506,0,7.99,1.543,10.452,4.628c2.46,3.086,3.692,7.888,3.692,14.404
		c0,5.756-0.832,13.556-2.496,23.4l10.192-0.52c4.368-0.208,8.112-0.554,11.232-1.04c1.248-7.626,3.154-14.768,5.72-21.424
		c2.564-6.656,5.754-12.064,9.568-16.224c3.812-4.16,8.076-6.24,12.792-6.24c3.466,0,6.205,1.37,8.216,4.108
		c2.01,2.74,3.016,6.328,3.016,10.764c0,17.196-8.771,29.12-26.312,35.776c-0.208,2.774-0.312,5.652-0.312,8.632
		c0,7.281,0.9,12.446,2.704,15.497c1.802,3.052,4.333,4.575,7.592,4.575c2.842,0,5.442-0.744,7.8-2.235
		c2.356-1.49,5.026-4.038,8.008-7.645c0.832-0.97,1.768-1.456,2.808-1.456C105.196,74.566,105.908,74.982,106.428,75.814z
		 M85.42,19.759c-1.7,2.774-3.312,6.552-4.836,11.336c-1.526,4.784-2.74,10.02-3.64,15.704c5.546-2.288,9.636-5.546,12.272-9.776
		c2.634-4.229,3.952-9.672,3.952-16.328c0-1.594-0.278-2.842-0.832-3.744c-0.556-0.9-1.248-1.352-2.08-1.352
		C88.73,15.599,87.118,16.986,85.42,19.759z"/>
    <path fill="#FFF" d="M167.422,67.183c0.484,0.901,0.728,2.046,0.728,3.433c0,3.327-1.006,5.304-3.016,5.928
		c-4.16,1.456-8.736,2.288-13.729,2.496c-1.317,5.823-3.918,10.487-7.8,13.987c-3.884,3.502-8.286,5.252-13.208,5.252
		c-4.16,0-7.714-1.004-10.66-3.016c-2.947-2.01-5.184-4.68-6.708-8.008c-1.525-3.328-2.288-6.933-2.288-10.816
		c0-5.269,1.005-9.966,3.017-14.092c2.01-4.124,4.784-7.348,8.319-9.672c3.536-2.322,7.453-3.484,11.752-3.484
		c5.269,0,9.517,1.82,12.74,5.46c3.225,3.64,5.112,8.13,5.668,13.468c3.259-0.209,7.141-0.9,11.648-2.081
		c0.554-0.138,1.04-0.208,1.456-0.208C166.242,65.831,166.936,66.283,167.422,67.183z M137.002,84.551
		c1.628-1.802,2.72-4.402,3.275-7.8c-2.149-1.456-3.796-3.362-4.939-5.72c-1.145-2.357-1.717-4.853-1.717-7.488
		c0-1.108,0.104-2.218,0.312-3.328h-0.521c-2.773,0-5.079,1.336-6.915,4.004c-1.838,2.67-2.757,6.432-2.757,11.284
		c0,3.813,0.744,6.726,2.236,8.736c1.49,2.012,3.24,3.016,5.252,3.016C133.447,87.255,135.372,86.354,137.002,84.551z"/>
    <path fill="#FFF" d="M200.752,75.814c0.52,0.832,0.78,1.977,0.78,3.433c0,2.773-0.66,4.924-1.977,6.447c-2.981,3.676-6.224,6.692-9.724,9.049
		c-3.502,2.357-7.472,3.535-11.908,3.535c-6.102,0-10.626-2.771-13.572-8.319c-2.947-5.546-4.42-12.723-4.42-21.528
		c0-8.458,1.092-18.096,3.276-28.912c2.184-10.816,5.408-20.106,9.672-27.872c4.264-7.765,9.342-11.648,15.236-11.648
		c3.328,0,5.944,1.543,7.852,4.628c1.906,3.086,2.86,7.506,2.86,13.26c0,8.252-2.288,17.82-6.864,28.704
		c-4.576,10.886-10.782,21.667-18.616,32.344c0.484,2.844,1.282,4.872,2.393,6.084c1.108,1.214,2.563,1.82,4.368,1.82
		c2.842,0,5.338-0.814,7.487-2.444c2.148-1.628,4.889-4.42,8.216-8.372c0.832-0.97,1.769-1.456,2.809-1.456
		C199.521,74.566,200.231,74.982,200.752,75.814z M180.42,18.927c-2.012,5.756-3.779,12.896-5.304,21.424
		c-1.526,8.528-2.358,16.71-2.496,24.544c4.922-8.112,8.84-16.241,11.752-24.388c2.912-8.146,4.368-15.582,4.368-22.308
		c0-5.268-0.972-7.904-2.912-7.904C184.232,10.295,182.43,13.173,180.42,18.927z"/>
    <path fill="#FFF" d="M194.563,93.599c-2.566-3.12-3.849-7.21-3.849-12.271c0-5.547,1.282-10.798,3.849-15.756
		c2.564-4.956,5.979-8.944,10.244-11.96c4.264-3.016,8.787-4.524,13.571-4.524c1.524,0,2.548,0.295,3.068,0.884
		c0.52,0.59,0.952,1.648,1.3,3.172c1.456-0.276,2.98-0.416,4.576-0.416c3.396,0,5.096,1.214,5.096,3.64
		c0,1.456-0.52,4.924-1.56,10.4c-1.596,7.974-2.393,13.521-2.393,16.641c0,1.04,0.261,1.871,0.78,2.495
		c0.521,0.624,1.196,0.937,2.028,0.937c1.316,0,2.912-0.849,4.784-2.548c1.872-1.698,4.401-4.454,7.592-8.269
		c0.832-0.97,1.768-1.456,2.808-1.456c0.9,0,1.612,0.416,2.132,1.248c0.521,0.832,0.78,1.977,0.78,3.433
		c0,2.773-0.659,4.924-1.976,6.447c-2.844,3.536-5.86,6.519-9.048,8.944c-3.19,2.428-6.276,3.64-9.257,3.64
		c-2.288,0-4.386-0.779-6.292-2.34c-1.907-1.56-3.346-3.691-4.315-6.396c-3.606,5.824-8.148,8.735-13.624,8.735
		C200.56,98.278,197.128,96.719,194.563,93.599z M212.972,85.07c1.386-1.802,2.392-4.193,3.016-7.176l3.848-19.136
		c-2.912,0.07-5.6,1.162-8.06,3.276c-2.462,2.116-4.42,4.906-5.876,8.372c-1.456,3.469-2.185,7.143-2.185,11.024
		c0,2.15,0.433,3.744,1.301,4.784c0.865,1.04,2.062,1.56,3.588,1.56C210.128,87.774,211.583,86.875,212.972,85.07z"/>
</g>
</svg>
