<svg version="1.1" xmlns="http://www.w3.org/2000/svg" xmlns:xlink="http://www.w3.org/1999/xlink" x="0px" y="0px" width="250px"
     height="250px" viewBox="0 0 250 250" enable-background="new 0 0 250 250" xml:space="preserve" class="icon sad">
    <g id="Layer_1" focusable="false">
        <path d="M125,3.906C58.105,3.906,3.906,58.105,3.906,125S58.105,246.094,125,246.094S246.094,191.895,246.094,125
            S191.895,3.906,125,3.906z M125,222.656c-53.857,0-97.656-43.799-97.656-97.656S71.143,27.344,125,27.344
            S222.656,71.143,222.656,125S178.857,222.656,125,222.656z M128.906,148.438c-6.445,0-11.719,5.273-11.719,11.719
            s5.273,11.719,11.719,11.719c11.621,0,22.607,5.127,30.078,14.062c3.955,4.785,11.328,5.811,16.504,1.514
            c4.98-4.15,5.664-11.523,1.514-16.504C165.039,156.641,147.51,148.438,128.906,148.438z M85.938,117.188
            c8.643,0,15.625-6.982,15.625-15.625S94.58,85.938,85.938,85.938s-15.625,6.982-15.625,15.625S77.295,117.188,85.938,117.188z
             M164.062,85.938c-8.643,0-15.625,6.982-15.625,15.625s6.982,15.625,15.625,15.625s15.625-6.982,15.625-15.625
            S172.705,85.938,164.062,85.938z"/>
    </g>
    <g id="tear">
	<path d="M83.203,129.68c-5.566,7.471-17.773,24.707-17.773,33.252c0,11.084,9.18,20.068,20.508,20.068s20.508-8.984,20.508-20.068
		c0-8.545-12.207-25.781-17.773-33.252C87.305,127.873,84.57,127.873,83.203,129.68z"/>
</g>
</svg>
